<?xml version="1.0" encoding="UTF-8" standalone="no"?>
<!DOCTYPE svg PUBLIC "-//W3C//DTD SVG 1.1//EN" "http://www.w3.org/Graphics/SVG/1.1/DTD/svg11.dtd">
<svg width="100%" height="100%" viewBox="0 0 2023 3774" version="1.1" xmlns="http://www.w3.org/2000/svg" xmlns:xlink="http://www.w3.org/1999/xlink" xml:space="preserve" xmlns:serif="http://www.serif.com/" style="fill-rule:evenodd;clip-rule:evenodd;stroke-linejoin:round;stroke-miterlimit:2;">
    <path id="hand-svg" d="M561.108,3118.62C574.295,3113 589.724,3099.97 622.912,3065.76C635.788,3052.48 653.434,3024.99 670.243,3009.73C772.855,2916.54 740.675,2688.71 735.426,2662.47C727.506,2622.87 713.928,2635.19 724.908,2591.09C725.93,2586.99 723.465,2580.04 717.5,2579.5C699.578,2577.89 687.674,2586.89 683.526,2593.29C679.378,2599.69 674.346,2604.78 668.71,2611.12C663.075,2617.46 571.753,2609.4 560.086,2601.7C548.418,2593.99 590.541,2517.63 603.861,2511.1C616.642,2504.82 708.542,2480.02 717.631,2451.03C724.427,2429.35 726.175,2391.83 725.89,2354.52C725.587,2314.89 678.962,2352.24 667.626,2364.74C664.734,2367.93 623.264,2383.48 559.204,2432.02C548.247,2440.33 540.716,2459.45 527.973,2469.59C509.959,2483.92 467.409,2498.64 451.119,2518.01C434.829,2537.38 406.046,2606.06 400.543,2615.42C395.04,2624.77 385.639,2601.31 364.726,2659.21C343.813,2717.1 348.294,2757.62 351.914,2787.46C355.799,2819.47 386.904,2903.36 395.159,2927.78C399.627,2941 410.476,2984.99 437.564,3031.42C445.071,3044.28 463.335,3071.28 469.954,3079.28C479.914,3091.33 496.808,3115.27 514.407,3119.49C523.225,3121.61 548.785,3123.88 561.108,3118.62Z" onclick="kek()"/>
    <style>
    #hand-svg{opacity:0;}
    #hand-svg:hover{fill:#FFFFFF; opacity:.3;cursor:pointer;}
    </style>
</svg>
